<svg width="101" height="91" viewBox="0 0 101 91" fill="none" xmlns="http://www.w3.org/2000/svg">
<rect x="22" y="1" width="57" height="67" stroke="black" stroke-width="2"/>
<path d="M38.1523 46.0312C38.1003 47.2161 36.6615 47.9388 33.8359 48.1992C33.7318 48.4076 33.7318 48.7135 33.8359 49.1172C36.2969 49.0391 38.0417 49 39.0703 49C40.6979 49 42.5534 49.0391 44.6367 49.1172C44.7409 48.7135 44.7409 48.4076 44.6367 48.1992C41.7852 47.9388 40.3464 47.2161 40.3203 46.0312C40.1901 41.9818 40.125 38.4531 40.125 35.4453C40.125 31.3307 40.1771 27.6914 40.2812 24.5273H40.4766L50.0078 48.5117H50.2031L59.1094 24.9961H59.2852C59.4154 28.9154 59.4805 32.3984 59.4805 35.4453C59.4805 39.6771 59.4154 43.2904 59.2852 46.2852C59.2591 46.6237 59.1029 46.9167 58.8164 47.1641C58.543 47.3984 58.1328 47.5872 57.5859 47.7305C57.0391 47.8607 56.5768 47.9518 56.1992 48.0039C55.8216 48.056 55.3398 48.1081 54.7539 48.1602C54.6497 48.3685 54.6497 48.6745 54.7539 49.0781C56.9674 49 59.2331 48.9609 61.5508 48.9609C64.3242 48.9609 66.9935 49 69.5586 49.0781C69.6628 48.8438 69.6628 48.5378 69.5586 48.1602C65.2357 47.8997 63.0612 47.2878 63.0352 46.3242C62.8789 42.2357 62.8008 38.1276 62.8008 34C62.8008 30.0026 62.8529 26.3633 62.957 23.082C62.9831 22.1185 65.1576 21.5065 69.4805 21.2461C69.5846 20.8685 69.5846 20.5625 69.4805 20.3281C66.9154 20.4062 63.5039 20.4453 59.2461 20.4453L50.9258 42.1641L42.918 20.4453C39.7409 20.4453 36.9284 20.3932 34.4805 20.2891C34.3503 20.5495 34.3503 20.7969 34.4805 21.0312C36.0299 21.2526 37.0391 21.5781 37.5078 22.0078C37.9896 22.4245 38.2435 23.3945 38.2695 24.918C38.3607 28.1211 38.4062 31.1484 38.4062 34C38.4062 37.9453 38.3216 41.9557 38.1523 46.0312ZM37.3516 46.0312C37.5208 41.9297 37.6055 37.9193 37.6055 34C37.6055 31.1484 37.5599 28.1211 37.4688 24.918C37.4427 23.7201 37.2083 22.9518 36.7656 22.6133C36.3359 22.2617 35.3984 21.9883 33.9531 21.793C33.5885 20.9987 33.6016 20.2174 33.9922 19.4492C36.987 19.5794 40.8802 19.6445 45.6719 19.6445L52.0781 36.7539L58.6797 19.6445C62.1693 19.6445 66.0234 19.5924 70.2422 19.4883C70.5026 20.3346 70.5286 21.1745 70.3203 22.0078C67.4427 22.2943 65.9909 22.6784 65.9648 23.1602C65.8477 25.6081 65.7891 29.2214 65.7891 34C65.7891 38.9349 65.8737 43.0169 66.043 46.2461C66.069 46.7279 67.5208 47.112 70.3984 47.3984C70.6068 48.2318 70.5807 49.0716 70.3203 49.918C66.1016 49.8138 63.6471 49.7617 62.957 49.7617C61.9154 49.7617 58.9987 49.8138 54.207 49.918C53.8815 49.0065 53.8815 48.1667 54.207 47.3984C57.0326 47.112 58.4583 46.7409 58.4844 46.2852C58.6146 43.2383 58.6797 39.625 58.6797 35.4453C58.6797 32.1901 58.6667 29.8008 58.6406 28.2773L50.75 49.3125H49.4414L40.9258 27.8477V35.4453C40.9258 38.4531 40.9909 41.9818 41.1211 46.0312C41.1471 46.7344 42.5729 47.2031 45.3984 47.4375C45.724 48.2188 45.724 49.0586 45.3984 49.957C41.5052 49.8008 37.4622 49.8008 33.2695 49.957C32.957 49.0586 32.957 48.2188 33.2695 47.4375C35.9648 47.1771 37.3255 46.7083 37.3516 46.0312Z" fill="black"/>
<path d="M79 67.8713V2.31415L100 22.0754V88.6072L79 67.8713Z" fill="white" stroke="black" stroke-width="2"/>
<path d="M22 68.2376V2.32277L1 22.1914V88.6347L22 68.2376Z" fill="white" stroke="black" stroke-width="2"/>
<path d="M0 90H101" stroke="black" stroke-width="2"/>
</svg>
